<?xml version="1.0" standalone="no"?>
<!DOCTYPE svg PUBLIC "-//W3C//DTD SVG 20010904//EN"
 "http://www.w3.org/TR/2001/REC-SVG-20010904/DTD/svg10.dtd">
<svg version="1.0" xmlns="http://www.w3.org/2000/svg"
 width="1024.000000pt" height="1024.000000pt" viewBox="0 0 1024.000000 1024.000000"
 preserveAspectRatio="xMidYMid meet">
<metadata>
Created by potrace 1.14, written by Peter Selinger 2001-2017
</metadata>
<g transform="translate(0.000000,1024.000000) scale(0.100000,-0.100000)"
fill="#000000" stroke="none">
<path d="M4445 10222 c-17 -9 -32 -20 -35 -23 -3 -3 -30 -20 -60 -37 -127 -71
-221 -126 -325 -188 -60 -36 -118 -68 -127 -71 -10 -3 -18 -9 -18 -14 0 -5 -4
-9 -9 -9 -6 0 -66 -34 -136 -75 -69 -41 -128 -75 -131 -75 -2 0 -21 -11 -42
-24 -20 -13 -57 -36 -82 -50 -62 -36 -188 -109 -208 -121 -9 -5 -60 -35 -112
-65 -52 -30 -103 -59 -112 -65 -9 -5 -47 -28 -85 -49 -37 -21 -76 -46 -85 -54
-10 -8 -18 -11 -18 -6 0 5 -4 5 -8 -1 -7 -11 -13 -14 -137 -84 -44 -24 -82
-47 -85 -50 -4 -5 -26 -18 -115 -65 -11 -6 -22 -14 -25 -17 -3 -3 -36 -23 -75
-44 -38 -21 -89 -51 -112 -67 -24 -16 -43 -27 -43 -24 0 3 -24 -11 -52 -30
-29 -19 -58 -34 -65 -34 -7 0 -13 -4 -13 -9 0 -5 -9 -12 -19 -16 -11 -3 -36
-17 -55 -30 -20 -13 -36 -22 -36 -19 0 2 -26 -12 -57 -33 -32 -21 -76 -47 -98
-58 -22 -11 -42 -22 -45 -25 -3 -3 -43 -28 -90 -55 -47 -27 -118 -68 -157 -92
-40 -24 -77 -43 -83 -43 -5 0 -10 -4 -10 -10 0 -5 -5 -10 -10 -10 -6 0 -44
-20 -84 -45 -41 -25 -79 -45 -85 -45 -6 0 -11 -3 -11 -7 0 -5 -10 -13 -23 -19
-41 -20 -92 -49 -97 -55 -3 -4 -24 -16 -47 -28 -23 -11 -45 -25 -48 -31 -4 -6
-10 -8 -15 -5 -4 3 -13 -2 -20 -10 -7 -8 -19 -15 -26 -15 -8 0 -14 -4 -14 -10
0 -5 -4 -10 -10 -10 -5 0 -43 -20 -83 -45 -41 -25 -79 -45 -85 -45 -6 0 -12
-3 -14 -7 -1 -5 -23 -19 -48 -32 -25 -14 -47 -27 -50 -30 -3 -3 -18 -14 -35
-23 l-30 -17 -3 -2205 c-1 -1213 1 -2206 4 -2206 4 0 30 14 58 32 28 17 65 39
81 48 17 10 180 108 364 219 184 110 338 201 342 201 5 0 9 4 9 8 0 4 19 18
43 30 23 12 49 26 57 32 8 5 65 39 125 75 61 36 115 68 120 72 6 5 24 15 40
24 16 9 30 24 31 34 1 9 5 19 8 22 2 3 1 16 -4 29 -5 13 -6 24 -2 24 4 0 7 23
7 50 0 28 -3 50 -7 50 -4 0 -3 14 2 30 5 17 5 30 0 30 -5 0 -5 13 0 29 4 15 4
34 0 42 -5 7 -5 20 0 29 5 9 5 22 0 30 -5 8 -5 21 0 30 5 9 5 22 0 30 -5 8 -5
21 0 30 5 9 5 22 0 30 -5 8 -5 21 0 30 5 9 5 22 0 30 -5 8 -5 21 0 30 5 9 5
22 0 30 -5 8 -5 21 0 30 5 9 5 22 0 30 -5 8 -5 21 0 30 5 9 5 22 0 30 -5 8 -5
21 0 30 5 9 5 22 0 30 -5 8 -5 21 0 30 5 9 5 22 0 30 -5 8 -5 21 0 30 5 9 5
22 0 30 -5 8 -5 21 0 30 5 9 5 22 0 30 -5 8 -5 21 0 30 5 9 5 22 0 30 -5 8 -5
21 0 30 5 9 5 22 0 30 -5 8 -5 21 0 30 5 9 5 22 0 30 -5 8 -5 21 0 30 5 9 5
22 0 30 -4 7 -6 18 -4 24 7 17 10 106 4 106 -7 0 -4 86 4 99 4 5 2 12 -3 15
-6 4 -6 18 -1 36 5 17 5 30 0 30 -4 0 -4 16 0 35 4 19 4 37 -1 40 -4 3 -4 16
1 29 4 12 4 29 0 36 -5 8 -5 21 0 30 5 9 5 22 0 30 -5 8 -5 21 1 31 5 11 5 20
0 24 -6 3 -6 17 -1 35 5 17 5 30 0 30 -4 0 -4 16 0 35 4 19 4 37 -1 40 -4 3
-4 16 1 29 4 12 4 29 0 36 -5 8 -6 18 -3 23 7 12 9 97 2 97 -3 0 -4 14 -1 30
4 26 8 30 26 24 11 -4 23 -11 24 -15 2 -5 10 -9 18 -9 8 0 14 -4 14 -10 0 -5
6 -10 13 -10 6 0 57 -27 112 -60 55 -33 105 -60 112 -60 6 0 13 -3 15 -7 4
-10 76 -52 101 -60 9 -3 17 -9 17 -14 0 -5 6 -9 13 -9 7 0 28 -11 48 -24 20
-14 67 -41 105 -61 38 -21 76 -44 85 -51 8 -8 18 -14 22 -14 3 0 34 -17 69
-37 35 -21 80 -47 100 -58 92 -50 174 -99 179 -107 3 -6 8 -8 10 -7 6 4 143
-74 147 -83 2 -4 8 -8 12 -8 5 0 31 -13 58 -29 26 -15 68 -39 93 -53 24 -14
136 -78 249 -143 215 -124 250 -143 315 -180 22 -13 81 -47 130 -75 50 -29
101 -59 115 -67 14 -8 48 -27 75 -44 28 -16 62 -34 78 -40 15 -6 27 -15 27
-20 0 -5 4 -9 10 -9 5 0 38 -17 72 -38 35 -21 71 -41 81 -45 10 -4 17 -13 14
-20 -2 -6 -1 -23 3 -37 4 -14 4 -34 0 -45 -4 -11 -4 -29 0 -41 5 -11 5 -26 0
-33 -4 -7 -4 -28 0 -47 4 -19 4 -36 0 -39 -4 -2 -4 -23 0 -45 4 -22 4 -43 0
-45 -4 -3 -4 -20 0 -39 4 -19 4 -40 0 -47 -5 -7 -5 -22 0 -34 5 -12 5 -27 0
-34 -4 -7 -4 -27 0 -45 4 -17 5 -40 4 -51 -2 -11 -4 -30 -4 -43 0 -12 0 -34
-1 -50 0 -15 0 -34 0 -42 1 -8 1 -26 0 -40 0 -14 0 -32 0 -40 1 -8 1 -26 0
-40 0 -14 0 -32 0 -40 1 -8 1 -26 0 -40 0 -14 0 -32 0 -40 1 -8 1 -26 0 -40 0
-14 0 -32 0 -40 1 -8 1 -26 0 -40 0 -14 0 -32 0 -40 2 -18 0 -58 -3 -85 -1
-11 1 -35 5 -52 4 -18 3 -33 -1 -33 -4 0 -4 -18 0 -40 4 -22 4 -40 0 -40 -4 0
-4 -15 0 -34 4 -19 4 -39 0 -46 -4 -7 -4 -27 0 -46 4 -19 4 -34 0 -34 -4 0 -4
-18 0 -40 4 -22 4 -40 0 -40 -4 0 -4 -15 0 -34 4 -19 4 -39 0 -46 -4 -7 -4
-27 0 -46 4 -19 4 -36 0 -39 -4 -3 -4 -21 0 -40 4 -19 4 -37 0 -40 -5 -3 -5
-19 0 -35 5 -16 5 -32 1 -35 -5 -2 -5 -23 -1 -45 4 -22 4 -40 0 -40 -4 0 -4
-18 0 -40 4 -22 4 -43 -1 -45 -4 -3 -4 -19 1 -35 5 -16 5 -32 1 -35 -5 -2 -5
-23 -1 -45 4 -22 4 -40 0 -40 -4 0 -4 -18 0 -40 4 -22 4 -43 -1 -45 -4 -3 -4
-18 0 -33 5 -15 5 -36 1 -47 -4 -11 -4 -31 0 -45 4 -14 5 -34 4 -45 -2 -11 -4
-30 -4 -42 0 -13 0 -35 -1 -50 0 -16 0 -35 0 -43 1 -8 1 -26 0 -40 0 -14 0
-32 0 -40 1 -8 1 -26 0 -40 0 -14 0 -31 0 -37 1 -7 1 -21 1 -30 0 -10 0 -29 1
-43 0 -14 0 -32 0 -40 0 -8 -1 -30 -1 -47 -1 -38 -16 -42 -52 -13 -14 10 -28
16 -32 13 -3 -3 -6 -1 -6 5 0 7 -5 12 -10 12 -6 0 -34 15 -63 33 -29 18 -59
36 -67 41 -8 4 -24 12 -35 19 -11 7 -74 43 -140 82 -66 38 -122 72 -125 75 -6
6 -41 27 -95 55 -22 11 -58 32 -80 46 -22 14 -60 36 -85 50 -25 13 -47 27 -50
30 -3 3 -12 9 -20 12 -17 8 -41 22 -233 135 -76 45 -140 82 -143 82 -3 0 -10
5 -17 10 -20 17 -180 110 -189 110 -4 0 -8 5 -8 11 0 5 -4 7 -10 4 -6 -3 -10
-1 -10 4 0 6 -4 11 -9 11 -5 0 -67 34 -136 75 -70 41 -129 75 -132 75 -2 0
-23 13 -46 28 -47 32 -77 45 -77 34 0 -5 -15 -16 -32 -25 -18 -9 -40 -21 -48
-27 -69 -45 -232 -140 -240 -140 -5 0 -10 -4 -10 -10 0 -5 -6 -10 -14 -10 -8
0 -21 -6 -28 -13 -7 -7 -89 -57 -182 -112 -93 -55 -175 -105 -181 -112 -7 -7
-15 -10 -17 -7 -3 2 -11 -2 -18 -11 -7 -8 -17 -15 -22 -15 -5 0 -34 -16 -64
-35 -30 -19 -59 -35 -64 -35 -6 0 -10 -4 -10 -10 0 -5 -4 -10 -9 -10 -5 0 -46
-23 -90 -50 -44 -28 -85 -50 -91 -50 -5 0 -10 -3 -10 -8 0 -4 -9 -12 -19 -17
-76 -39 -111 -59 -111 -65 0 -4 16 -15 35 -26 19 -10 35 -22 35 -26 0 -5 4 -8
10 -8 5 0 42 -21 82 -47 40 -27 78 -50 83 -53 6 -3 29 -17 52 -32 24 -16 47
-28 52 -28 5 0 11 -3 13 -7 3 -8 165 -113 174 -113 2 0 13 -8 24 -18 11 -9 23
-15 27 -14 3 2 9 -1 12 -6 3 -5 20 -18 38 -28 86 -51 179 -110 191 -121 7 -7
20 -13 28 -13 8 0 14 -4 14 -10 0 -5 5 -10 10 -10 6 0 16 -5 23 -11 10 -8 103
-67 317 -200 14 -9 56 -36 94 -60 39 -24 78 -48 88 -54 10 -5 77 -47 149 -92
72 -46 135 -83 140 -83 5 0 9 -4 9 -9 0 -5 14 -14 30 -21 17 -7 30 -16 30 -21
0 -5 4 -9 10 -9 11 0 307 -184 337 -210 7 -5 14 -10 17 -10 5 0 218 -133 348
-217 37 -23 70 -43 73 -43 3 0 11 -5 18 -10 7 -6 37 -26 67 -45 30 -19 60 -38
65 -42 6 -4 24 -16 40 -26 96 -57 134 -81 172 -105 23 -15 75 -47 115 -72 40
-24 75 -47 78 -50 3 -4 12 -10 20 -13 8 -4 27 -15 42 -25 113 -71 437 -276
453 -285 11 -7 39 -24 62 -39 23 -16 46 -28 51 -28 6 0 12 -5 14 -10 8 -26 54
-7 207 88 90 56 165 102 167 102 8 0 89 55 92 63 2 4 8 7 13 7 5 0 57 29 114
65 58 36 110 65 115 65 6 0 10 4 10 8 0 5 18 17 40 27 22 10 40 22 40 27 0 4
6 8 13 9 6 0 39 18 72 39 33 21 121 75 195 120 74 45 170 104 213 131 43 27
80 49 82 49 2 0 52 31 112 68 59 38 115 71 123 75 8 4 47 27 85 52 39 25 97
61 130 80 91 54 97 58 132 82 17 13 33 23 36 23 4 0 130 75 202 121 22 14 56
34 75 45 19 10 39 23 45 27 26 20 158 97 166 97 5 0 9 4 9 10 0 5 11 12 25 16
14 3 25 10 25 14 0 4 8 10 18 14 9 3 46 24 82 47 36 23 79 49 95 59 52 30 140
85 145 90 3 3 16 11 30 18 28 13 62 34 70 42 7 8 130 80 136 80 3 0 10 5 17
10 22 19 239 150 248 150 5 0 9 5 9 10 0 6 5 10 10 10 6 0 29 12 53 27 86 54
115 72 230 143 97 59 116 74 106 86 -6 8 -15 14 -19 14 -5 0 -47 24 -95 53
-47 28 -100 60 -117 70 -18 10 -121 72 -229 138 -109 65 -202 119 -208 119 -5
0 -11 3 -13 8 -1 4 -48 34 -103 66 -55 33 -108 66 -117 74 -10 8 -18 11 -18 6
0 -5 -4 -4 -8 2 -4 6 -26 22 -49 35 -23 13 -90 53 -150 89 -139 84 -139 84
-173 60 -15 -11 -31 -20 -35 -20 -3 0 -31 -16 -61 -35 -30 -19 -56 -35 -59
-35 -4 0 -71 -40 -130 -78 -11 -6 -27 -15 -35 -19 -8 -4 -92 -53 -185 -108
-94 -56 -177 -104 -185 -108 -8 -4 -33 -18 -55 -32 -22 -14 -71 -43 -110 -65
-38 -23 -77 -45 -85 -50 -38 -24 -197 -117 -210 -123 -15 -8 -27 -15 -90 -53
-110 -67 -276 -162 -284 -162 -5 0 -12 -4 -15 -9 -3 -5 -33 -25 -66 -44 -33
-19 -69 -39 -80 -46 -11 -7 -27 -16 -35 -20 -8 -4 -30 -17 -49 -30 -43 -29
-50 -29 -46 2 1 14 -1 25 -6 25 -5 0 -5 10 0 22 4 12 5 37 1 55 -5 18 -4 35 0
38 4 2 4 23 0 45 -4 22 -4 43 0 45 4 3 4 21 0 40 -4 19 -4 35 0 35 4 0 4 16 0
35 -4 19 -4 37 0 40 4 2 4 23 0 45 -4 22 -4 43 0 45 4 3 4 21 0 40 -4 19 -4
35 0 35 4 0 4 16 0 35 -4 19 -4 37 0 40 4 2 4 23 0 45 -4 22 -4 43 0 45 4 3 4
21 0 40 -4 19 -4 35 0 35 4 0 4 16 0 35 -4 19 -4 37 0 40 4 2 4 23 0 45 -4 22
-4 43 0 45 4 3 4 20 0 39 -4 19 -4 40 0 47 5 7 5 22 0 34 -5 12 -5 27 0 34 4
7 4 27 0 45 -4 17 -5 40 -4 51 2 11 4 30 4 42 0 13 0 35 1 50 0 16 0 35 0 43
-1 8 -1 26 0 40 0 14 0 32 0 40 -1 8 -1 26 0 40 0 14 0 32 0 40 -1 8 -1 26 0
40 0 14 0 32 0 40 -1 8 -1 26 0 40 0 14 0 32 0 40 -1 8 -1 26 0 40 0 14 0 32
0 40 -2 18 0 58 3 85 1 11 -1 35 -5 53 -4 17 -3 32 1 32 4 0 4 18 0 40 -4 22
-4 40 0 40 4 0 4 15 0 34 -4 19 -4 39 0 46 4 7 4 27 0 46 -4 19 -4 34 0 34 4
0 4 18 0 40 -4 22 -4 40 0 40 4 0 4 15 0 34 -4 19 -4 39 0 46 4 7 4 27 0 46
-4 19 -4 36 0 39 4 3 4 21 0 40 -4 19 -4 37 0 40 5 3 5 19 0 35 -5 16 -5 32
-1 35 5 2 5 23 1 45 -4 22 -4 40 0 40 4 0 4 18 0 40 -4 22 -4 43 1 45 4 3 4
18 -1 34 -4 16 -6 32 -4 34 3 3 5 50 6 104 l0 100 42 22 c79 41 123 66 137 77
8 6 43 27 79 47 36 19 90 50 120 67 30 18 75 44 100 58 25 14 61 34 80 45 19
11 58 33 85 49 28 16 57 33 65 38 54 34 173 100 180 100 5 0 10 3 12 8 2 4 21
16 43 27 22 10 47 24 55 31 8 6 35 22 60 35 25 13 51 30 58 37 7 6 18 12 23
12 6 0 34 16 64 35 30 19 55 31 55 27 0 -4 4 -2 8 4 6 10 125 80 217 128 22
12 42 24 43 29 2 4 10 7 18 7 8 0 14 5 14 10 0 6 9 10 20 10 11 0 20 4 20 9 0
5 10 13 23 17 12 3 28 12 36 18 15 12 108 66 161 93 19 9 41 23 48 30 7 7 20
13 27 13 7 0 20 6 27 13 12 12 60 40 158 93 19 11 37 22 38 27 2 4 8 7 12 7 5
0 33 14 62 31 94 56 303 176 338 194 32 17 33 17 27 -4 -3 -12 -1 -21 4 -21 6
0 6 -7 0 -18 -5 -10 -6 -24 -1 -32 5 -8 5 -21 0 -30 -5 -9 -5 -22 0 -30 5 -8
5 -21 0 -30 -5 -9 -5 -22 0 -30 5 -8 5 -21 0 -30 -5 -9 -5 -22 0 -30 5 -8 5
-21 0 -30 -5 -9 -5 -22 0 -30 5 -8 5 -21 0 -30 -5 -9 -5 -22 0 -30 5 -8 5 -21
0 -30 -5 -9 -5 -22 0 -30 5 -8 5 -21 0 -30 -5 -9 -5 -22 0 -30 4 -7 6 -18 4
-24 -7 -17 -10 -106 -4 -106 7 0 4 -86 -4 -99 -4 -5 -2 -12 3 -15 6 -4 6 -18
1 -36 -5 -17 -5 -30 0 -30 4 0 4 -16 0 -35 -4 -19 -4 -37 1 -40 4 -3 4 -16 -1
-29 -4 -12 -4 -29 0 -36 5 -8 5 -21 0 -30 -5 -9 -5 -22 0 -30 5 -8 5 -21 -1
-31 -5 -11 -5 -20 0 -24 6 -3 6 -17 1 -35 -5 -17 -5 -30 0 -30 4 0 4 -16 0
-35 -4 -19 -4 -37 1 -40 4 -3 4 -16 -1 -29 -4 -12 -4 -29 0 -36 5 -8 5 -21 0
-30 -5 -9 -5 -22 0 -30 5 -8 5 -21 -1 -31 -5 -11 -5 -20 0 -24 6 -3 6 -17 1
-35 -5 -17 -5 -30 0 -30 4 0 4 -16 0 -35 -4 -19 -4 -37 1 -40 4 -3 4 -16 -1
-29 -4 -12 -4 -29 0 -36 5 -8 5 -21 0 -30 -5 -9 -5 -22 0 -30 5 -8 5 -21 -1
-31 -5 -11 -5 -20 0 -24 6 -3 6 -17 1 -35 -5 -17 -5 -30 0 -30 4 0 4 -16 0
-35 -4 -19 -4 -37 1 -40 4 -3 4 -16 -1 -29 -4 -12 -4 -29 0 -36 5 -8 6 -18 3
-23 -9 -15 -10 -49 -2 -79 4 -15 3 -30 -2 -33 -5 -4 -5 -13 1 -24 5 -10 7 -21
4 -24 -3 -2 19 -19 48 -36 29 -18 60 -36 68 -41 83 -52 183 -110 186 -110 3 0
25 -13 49 -30 24 -16 48 -30 54 -30 6 0 11 -4 11 -10 0 -5 5 -10 11 -10 6 0
23 -8 37 -19 40 -28 115 -71 135 -78 9 -3 17 -9 17 -14 0 -5 5 -9 10 -9 6 0
36 -16 66 -35 30 -19 57 -36 62 -37 4 -1 60 -35 125 -75 66 -40 123 -73 128
-73 5 0 9 -4 9 -10 0 -5 5 -10 11 -10 6 0 29 -13 52 -28 23 -15 53 -33 67 -40
14 -7 45 -25 70 -41 25 -16 48 -30 53 -30 4 -1 7 991 7 2203 l0 2204 -24 16
c-14 8 -40 24 -58 35 -18 10 -73 42 -121 70 -49 28 -92 51 -97 51 -5 0 -10 3
-12 8 -3 6 -88 57 -207 124 -55 31 -202 118 -243 144 -21 13 -39 24 -42 24 -2
0 -34 18 -70 40 -36 22 -70 40 -76 40 -5 0 -10 3 -10 8 0 4 -10 12 -23 18 -12
6 -105 59 -207 119 -102 59 -198 115 -213 124 -16 9 -36 21 -45 26 -10 6 -71
41 -137 79 -66 38 -128 76 -137 84 -10 8 -18 12 -18 8 0 -4 -26 10 -57 32 -32
21 -69 43 -83 50 -14 6 -32 16 -40 22 -51 32 -153 90 -161 90 -5 0 -9 3 -9 8
0 4 -13 13 -30 20 -16 7 -45 24 -65 37 -19 14 -35 22 -35 19 0 -3 -19 8 -42
24 -24 16 -61 39 -83 51 -22 12 -47 26 -55 31 -45 28 -271 160 -275 160 -3 0
-24 12 -48 27 -39 24 -163 98 -247 145 -19 11 -46 28 -60 38 -14 10 -28 18
-33 19 -4 0 -17 7 -30 15 -36 22 -258 152 -473 275 -71 41 -131 77 -134 81 -3
3 -21 14 -40 23 -19 9 -48 25 -65 37 -39 26 -46 25 -36 -2 4 -13 5 -34 1 -48
-4 -14 -3 -37 1 -52 4 -15 4 -30 0 -33 -5 -2 -5 -23 -1 -45 4 -22 4 -40 0 -40
-4 0 -4 -18 0 -40 4 -22 4 -43 -1 -45 -4 -3 -4 -19 1 -35 5 -16 5 -32 1 -35
-5 -2 -5 -23 -1 -45 4 -22 4 -40 0 -40 -4 0 -4 -18 0 -40 4 -22 4 -43 -1 -45
-4 -3 -4 -19 1 -35 5 -16 5 -32 0 -35 -4 -3 -4 -21 0 -40 4 -19 4 -37 0 -40
-4 -3 -4 -20 0 -39 4 -19 4 -39 0 -46 -4 -7 -4 -27 0 -46 4 -19 4 -34 0 -34
-4 0 -4 -18 0 -40 4 -22 4 -40 0 -40 -4 0 -4 -15 0 -34 4 -19 4 -39 0 -46 -4
-7 -4 -27 0 -46 4 -19 4 -34 0 -34 -4 0 -4 -18 0 -40 4 -22 4 -40 0 -40 -4 0
-5 -15 -1 -32 4 -18 6 -42 5 -53 -3 -22 -4 -62 -4 -100 0 -13 0 -28 -1 -32 -6
-37 5 -55 54 -85 29 -18 62 -39 73 -46 10 -7 27 -15 37 -18 9 -4 17 -10 17
-15 0 -5 5 -9 11 -9 6 0 30 -13 54 -30 24 -16 46 -30 48 -30 8 0 192 -112 210
-128 9 -8 17 -12 17 -8 0 6 48 -21 60 -34 3 -3 21 -13 40 -24 19 -10 58 -34
87 -52 28 -19 56 -34 62 -34 6 0 11 -4 11 -10 0 -5 6 -10 14 -10 7 0 19 -7 26
-15 7 -8 16 -12 21 -9 5 3 9 1 9 -4 0 -4 19 -18 43 -31 35 -18 115 -65 187
-110 84 -53 278 -167 288 -169 6 -2 12 -8 12 -13 0 -5 5 -9 11 -9 6 0 23 -8
37 -19 15 -10 43 -28 63 -39 76 -42 84 -47 89 -52 3 -3 16 -11 29 -18 58 -33
92 -53 176 -106 50 -31 101 -61 115 -67 24 -10 24 -10 -20 -36 -25 -14 -56
-33 -70 -42 -14 -8 -27 -16 -30 -16 -3 0 -48 -26 -100 -57 -52 -30 -165 -95
-250 -144 -85 -48 -158 -93 -162 -98 -4 -6 -8 -7 -8 -2 0 5 -8 3 -17 -5 -16
-13 -41 -27 -108 -63 -11 -6 -22 -13 -25 -16 -3 -3 -16 -11 -30 -18 -14 -6
-32 -16 -40 -22 -20 -13 -362 -210 -365 -210 -1 0 -54 -30 -116 -66 -63 -37
-130 -76 -149 -87 -19 -11 -125 -71 -235 -135 -110 -63 -225 -129 -255 -145
-30 -16 -62 -35 -70 -41 -8 -7 -26 -18 -40 -24 -14 -7 -41 -22 -60 -33 -19
-11 -87 -50 -150 -87 -63 -36 -123 -72 -132 -80 -10 -8 -18 -11 -18 -7 0 4 -8
2 -17 -6 -10 -8 -30 -21 -45 -28 -30 -15 -43 -11 -143 49 -27 17 -72 42 -100
56 -27 15 -51 30 -53 35 -2 5 -7 9 -12 9 -4 0 -95 50 -201 111 -107 61 -214
123 -239 137 -25 14 -62 36 -82 49 -21 12 -40 23 -44 23 -3 0 -26 14 -51 30
-24 17 -46 30 -49 30 -3 0 -42 22 -87 48 -45 27 -97 55 -114 63 -18 7 -33 17
-33 21 0 3 -21 16 -47 29 -27 12 -50 25 -53 29 -3 3 -16 11 -30 18 -14 6 -32
16 -40 22 -8 5 -67 39 -130 75 -63 36 -122 70 -130 76 -8 5 -22 12 -30 16 -8
4 -17 9 -20 13 -3 3 -21 14 -40 23 -19 10 -57 31 -85 47 -27 17 -61 36 -75 43
-14 6 -27 14 -30 17 -10 11 -170 100 -180 100 -5 0 -10 5 -10 10 0 6 -6 10
-14 10 -7 0 -19 7 -26 15 -7 9 -15 13 -18 10 -3 -3 -10 -1 -16 4 -20 16 -288
171 -296 171 -5 0 -10 3 -12 8 -1 4 -21 16 -42 27 -46 23 -53 36 -28 50 10 6
40 21 65 34 26 14 47 29 47 33 0 4 4 8 8 8 5 0 259 150 565 334 307 184 557
332 557 329 0 -2 6 2 13 9 8 7 154 96 324 198 240 143 312 190 316 208 2 12 1
25 -3 27 -4 3 -4 23 0 45 4 22 4 40 0 40 -4 0 -5 15 -1 33 4 17 4 47 0 65 -3
18 -3 34 1 37 4 2 4 23 0 45 -4 22 -4 43 0 45 4 3 4 21 0 40 -4 19 -4 35 0 35
4 0 4 16 0 35 -4 19 -4 37 0 40 4 2 4 23 0 45 -4 22 -4 43 0 45 4 3 4 20 0 39
-4 19 -4 40 0 47 5 7 5 22 0 34 -5 12 -5 27 0 34 4 7 4 27 0 45 -10 44 -10 42
0 74 4 16 4 35 0 42 -4 7 -4 25 0 40 4 15 4 33 0 40 -4 7 -4 25 0 40 4 15 4
33 0 40 -4 7 -4 25 0 40 4 15 4 33 0 40 -4 7 -4 25 0 40 4 15 4 33 0 40 -4 7
-4 24 0 39 4 14 4 35 0 46 -4 11 -4 29 0 40 4 11 4 34 0 52 -4 17 -3 36 2 41
18 18 -7 21 -37 4z"/>
</g>
</svg>
