<svg enable-background="new 0 0 426 426" viewBox="0 0 426 426" xmlns="http://www.w3.org/2000/svg"><path d="m334.02 136h-241.04c-32.17 0-58.48 26.32-58.48 58.48v102.03c0 32.17 26.32 58.48 58.48 58.48h241.03c32.17 0 58.48-26.32 58.48-58.48v-102.03c.01-32.16-26.31-58.48-58.47-58.48zm-84.41 114.83-56.3 29.67c-4.68 2.47-10.31-.93-10.31-6.22v-54.78c0-5.09 5.24-8.49 9.89-6.42l56.3 25.11c5.37 2.39 5.61 9.91.42 12.64z" fill="#009223"/><path d="m127.02 62.08 23.81-23.81c1.26-1.26 3.3-1.28 4.59-.04l49.23 47.36c.61.59 1.42.92 2.27.92h13.3c.88 0 1.72-.35 2.34-.98l46.92-47.86c1.2-1.22 3.13-1.32 4.44-.22l24.92 20.77c1.48 1.23 1.58 3.47.22 4.83l-45.5 45.5c-.61.61-1.45.96-2.32.96h-76.37c-.82 0-1.61-.31-2.22-.86l-45.54-41.82c-1.36-1.28-1.4-3.43-.09-4.75z" fill="#ffce32"/></svg>