<svg enable-background="new 0 0 426 426" viewBox="0 0 426 426" xmlns="http://www.w3.org/2000/svg"><path d="m297.87 54.96c-41.66-53.19-127.99-52.81-169.35 0-35.33 45.11-36.66 100.94-1.21 145.97 26.72 33.94 54.41 66.81 84.2 98.15l.26.27c.85.9 2.3.81 3.04-.18l.15-.18c29.76-31.31 57.42-64.15 84.12-98.06 35.45-45.03 34.12-100.86-1.21-145.97zm-83.48 104.12c-19.33 0-35-15.67-35-35s15.67-35 35-35 35 15.67 35 35-15.67 35-35 35z" fill="#009223"/><path d="m41.68 372.05 60.65-98.75c7.14-11.63 23.61-12.79 32.31-2.27l48.55 58.69c.45.55 1.12.86 1.83.86h53.85c.66 0 1.28-.27 1.73-.75l56.68-60.41c9.22-9.82 25.32-7.85 31.9 3.91l55.2 98.74c.99 1.77-.55 3.89-2.54 3.49l-53.5-10.84c-11.61-2.35-23.67-.68-34.19 4.75l-79.65 41.06c-.68.35-1.49.35-2.18 0l-78.15-40.31c-10.22-5.27-21.89-7.01-33.21-4.95l-56.82 10.36c-2.03.37-3.54-1.83-2.46-3.58z" fill="#ffce32"/></svg>