<svg enable-background="new 0 0 426 426" viewBox="0 0 426 426" xmlns="http://www.w3.org/2000/svg"><path d="m136.9 94.5c-1.46 0-2.2-1.75-1.18-2.79l74.77-76.76c2.48-2.45 6.49-2.41 8.92.08l71.98 76.7c.99 1.05.24 2.77-1.2 2.77h-51.56c-.41 0-.81-.15-1.11-.43l-23.52-21.57-22.52 21.54c-.31.29-.71.46-1.14.46z" fill="#ffce32"/><g fill="#009223"><path d="m186.88 219.68h-22.07c-.43 0-.96 0-.96 2.26v14.06h23.03c1.77 0 3.13-.71 4.27-2.22 1.29-1.71 1.92-3.69 1.92-6.05 0-2.34-.62-4.28-1.9-5.91-1.14-1.46-2.5-2.14-4.29-2.14z"/><path d="m108.54 217.71c-5.47 0-9.6 2.15-12.62 6.57-2.81 4.17-4.24 9.65-4.24 16.29 0 6.54 1.45 11.87 4.3 15.83 3.03 4.25 7.13 6.31 12.56 6.31 5.46 0 9.49-2.04 12.33-6.25 2.7-3.92 4.06-9.26 4.06-15.89 0-6.72-1.35-12.22-4-16.35-2.88-4.37-6.94-6.51-12.39-6.51z"/><path d="m356.4 124h-283.8c-20.41 0-37.1 16.7-37.1 37.1v159.8c0 20.41 16.7 37.1 37.1 37.1h283.8c20.41 0 37.1-16.7 37.1-37.1v-159.8c0-20.4-16.7-37.1-37.1-37.1zm-222.6 144.3c-5.83 7.51-14.3 11.32-25.16 11.32-10.66 0-19.17-3.83-25.32-11.38-5.77-7.12-8.7-16.64-8.7-28.29 0-11.38 2.96-20.73 8.8-27.78 6.14-7.47 14.53-11.26 24.93-11.26 10.21 0 18.54 3.82 24.75 11.37 5.84 7.2 8.8 16.51 8.8 27.67 0 11.91-2.73 21.44-8.1 28.35zm69.85-22.78c-4.28 4.97-9.7 7.49-16.11 7.49h-23.68v18.1c0 5.4-3.16 8.5-8.67 8.5-5.39 0-8.48-3.14-8.48-8.61v-55.17c0-4.13 1.4-7.42 4.15-9.77 2.41-2.17 5.52-3.29 9.2-3.29h28.33c6.37 0 11.65 2.5 15.68 7.44 3.97 4.77 5.99 10.64 5.99 17.42-.01 6.94-2.16 12.96-6.41 17.89zm65.5 32.02h-42.92c-8 0-12.41-4.42-12.41-12.44v-50c0-7.89 4.24-12.23 11.94-12.23h42.92c2.35 0 7.83.86 7.83 8.81 0 2.08-.79 4-2.29 5.56l-.11.11c-1.59 1.47-3.42 2.21-5.43 2.21h-34.51c-1.77 0-2.46.34-2.69.49-.15.23-.51 1.01-.51 3.11v7.54h33.5c2.29 0 4.24.88 5.65 2.54l.1.12c1.2 1.61 1.8 3.58 1.8 5.84 0 5.27-2.89 8.3-7.92 8.3h-33.04v10.03c0 2 .58 3.09 3.67 3.09h34.88c2.34 0 4.34.94 5.81 2.71 1.47 1.57 2.21 3.59 2.21 6 .01 5.23-3.08 8.21-8.48 8.21zm74.21-7.26c0 8.61-5.41 9.54-7.74 9.54-2.25 0-5.51-.81-8.29-4.66l-28.86-40.8v36.13c0 5.8-3.26 9.12-8.95 9.12-2.44 0-8.11-.9-8.11-9.23v-60.25c0-8.33 5.67-9.23 8.11-9.23 3.55 0 6.52 1.59 8.6 4.6l28.17 39.74v-35.11c0-5.86 3.02-9.23 8.3-9.23 5.57 0 8.77 3.36 8.77 9.23z"/></g></svg>