<svg enable-background="new 0 0 240 47.8" viewBox="0 0 240 47.8" xmlns="http://www.w3.org/2000/svg"><path d="m39.2 32c0 5.9-3.4 9.5-8.8 10.6-1.5.3-4 .3-5.7.3l-13.1-.1v5l-11.6-9.5 11.6-9.5v5l14.7.1c1.4 0 2-.8 2-1.6 0-1.5-1.4-2-5.6-4-6.7-3.2-11.9-5.5-11.9-12.8 0-5.7 4.1-9.6 10.1-10.4 1.2-.2 3.5-.2 4.9-.2 3 0 11.4.2 11.4.2v9.1l-13.8-.2c-1.2 0-1.8.8-1.8 1.6 0 1.2 1 1.7 4.9 3.5 8.2 3.8 12.7 5.9 12.7 12.9zm21.7-.7c0 1.7-1.5 3.1-4.2 3.1-2.9 0-4.2-1.4-4.2-3.1v-26.3h-11.3v27.2c0 6 5 11.7 15.4 11.7 9.9 0 15.4-5.6 15.4-11.7v-27.2h-11.1zm45.8.2c0 7.5-5.1 11.6-12.5 11.6h-18.7v-38.1h18c8.1 0 12.2 4.5 12.2 10.4 0 3-1.4 5.6-4.2 7.5 3.3 1.8 5.2 4.6 5.2 8.6zm-20.1-11.4h5.2c2 0 2.9-1.4 2.9-3.4 0-2.1-.9-3.4-2.9-3.4h-5.2zm8.8 10.9c0-2.3-1.1-3.6-3.1-3.6h-5.7v7.2h5.7c2.1 0 3.1-1.4 3.1-3.6z" fill="#ffc10d"/><g fill="#009132"><path d="m144.1 5h11.1v26.8c0 6.2-4.4 11.8-13.7 11.8-4 0-7.1-1.2-9.3-3-2.2 1.8-5.2 3-8.9 3-9.9 0-14-5.6-14-11.8v-26.8h11.1v26.6c0 1.1.6 2.5 3.1 2.5s3.2-1.3 3.2-2.5v-26.6h11.1v26.6c0 1.1.6 2.5 3.1 2.5s3.2-1.3 3.2-2.5zm58.9 15v-15h-11v16c0 5.3 3.6 9.3 9.7 11v11h11.3v-11c6.2-1.7 9.6-5.7 9.6-11v-5.9c0-.6.3-.9.9-.9h4.9v4.8l11.6-9.5-11.6-9.5v4.8h-7.7c-6.5 0-9.2 3.8-9.2 9.2v6c0 1.4-1 3.1-4.3 3.1-3.2 0-4.2-1.7-4.2-3.1zm-13.8-4.1v27.2h-11.1v-11.1h-8.4v11h-11.1v-27.1c0-6.8 5.6-12 15.3-12 9.6 0 15.3 5.1 15.3 12zm-11.1 7.4v-6.8c0-1.8-1.3-3.1-4.2-3.1-3 0-4.2 1.3-4.2 3.1v6.8z"/><path d="m219.9 40.7c0-.3-.3-.5-.6-.5h-1v2h.4v-.7h.5c.2 0 .4.1.4.4v.4h.4v-.5c0-.2-.1-.3-.3-.4.2-.3.2-.4.2-.7zm-.7.4h-.5v-.6h.5c.2 0 .3.1.3.3s-.1.3-.3.3zm-.1-1.9c-1.1 0-2 .9-2 2s.9 2 2 2 2-.9 2-2-.9-2-2-2zm0 3.7c-.9 0-1.7-.8-1.7-1.7s.8-1.7 1.7-1.7 1.7.8 1.7 1.7c-.1.9-.8 1.7-1.7 1.7z"/></g></svg>